#!OML:ASF F:\VICON\USERDATA\INSTALL\rory3\rory3.ASF
:FULLY-SPECIFIED
:DEGREES
386
root 9.0951 17.7906 2.68936 -366.45 50.3253 -362.276
lowerback 12.8925 0.482443 -1.63766
upperback 1.36881 0.437772 -0.0369238
thorax -5.80218 0.266725 0.807645
lowerneck -12.077 -9.26041 -14.689
upperneck 32.9953 -14.0269 13.5429
head 15.8604 -6.03585 5.86474
rclavicle -4.20678e-014 1.66979e-014
rhumerus -40.8794 -16.123 -72.3728
rradius 35.3848
rwrist 3.71828
rhand -19.3107 6.90918
rfingers 7.12502
rthumb 7.00519 -22.9549
lclavicle -4.20678e-014 1.66979e-014
lhumerus -30.6559 5.21714 82.7292
lradius 32.9568
lwrist -8.10039
lhand -16.7549 26.7081
lfingers 7.12502
lthumb 9.47186 56.4753
rfemur -8.82683 0.409734 20.2441
rtibia 32.0451
rfoot -16.8892 2.51206
rtoes 2.22411
lfemur -12.1518 -1.599 -14.8526
ltibia 38.1131
lfoot -17.2893 -9.24094
ltoes -18.453
387
root 9.09417 17.7862 2.74059 -366.278 50.0105 -362.137
lowerback 12.815 0.465688 -1.45798
upperback 1.34805 0.43844 -0.0859632
thorax -5.77931 0.261939 0.654854
lowerneck -12.1006 -9.23411 -14.6396
upperneck 33.1417 -14.0023 13.509
head 15.925 -6.02075 5.85532
rclavicle -2.73329e-016 8.74653e-015
rhumerus -40.9581 -16.5024 -72.0239
rradius 35.4227
rwrist 3.58136
rhand -19.0647 7.03476
rfingers 7.12502
rthumb 7.24269 -22.8213
lclavicle -2.73329e-016 8.74653e-015
lhumerus -30.6082 5.00834 82.9635
lradius 32.7541
lwrist -7.94066
lhand -16.6571 26.8528
lfingers 7.12502
lthumb 9.56622 56.6156
rfemur -9.00535 0.579146 20.3394
rtibia 32.4237
rfoot -17.1015 2.66267
rtoes 2.66131
lfemur -12.5523 -1.66555 -15.6878
ltibia 37.7536
lfoot -18.2103 -9.80973
ltoes -19.8721
388
root 9.09278 17.7781 2.78971 -366.024 49.7742 -361.913
lowerback 12.7853 0.465626 -1.36395
upperback 1.30634 0.448316 -0.128189
thorax -5.80605 0.26409 0.55565
lowerneck -12.1162 -9.25721 -14.6457
upperneck 33.2679 -14.0478 13.5037
head 16.0024 -6.0393 5.85297
rclavicle -5.57591e-014 -1.43125e-014
rhumerus -40.9944 -16.9013 -71.6173
rradius 35.3415
rwrist 3.55705
rhand -18.9924 7.01523
rfingers 7.12502
rthumb 7.31248 -22.8384
lclavicle -5.57591e-014 -1.43125e-014
lhumerus -30.5586 4.96566 83.17
lradius 32.5025
lwrist -8.17835
lhand -16.5579 25.652
lfingers 7.12502
lthumb 9.66189 55.4104
rfemur -9.25234 0.467371 20.3314
rtibia 32.8698
rfoot -17.3324 2.98987
rtoes 3.06444
lfemur -13.0046 -1.86482 -16.5669
ltibia 37.3489
lfoot -18.7438 -10.7745
ltoes -20.8756
389
root 9.09388 17.7591 2.84438 -365.836 49.5178 -361.766
lowerback 12.5979 0.455698 -1.3858
upperback 1.33656 0.441062 -0.0297143
thorax -5.67074 0.261069 0.67402
lowerneck -12.0548 -9.26472 -14.7278
upperneck 33.2118 -13.9956 13.3786
head 15.9419 -6.04649 5.8176
rclavicle 1.11568e-014 4.77083e-015
rhumerus -40.8478 -16.9431 -71.2379
rradius 35.2978
rwrist 3.36915
rhand -19.0611 6.76711
rfingers 7.12502
rthumb 7.24617 -23.0888
lclavicle 1.11568e-014 4.77083e-015
lhumerus -30.5816 5.00748 83.4964
lradius 32.465
lwrist -8.41134
lhand -16.7226 25.2487
lfingers 7.12502
lthumb 9.50305 55.0144
rfemur -9.51181 0.207855 20.3632
rtibia 33.3956
rfoot -17.5561 3.46352
rtoes 3.36666
lfemur -13.4167 -2.15333 -17.3386
ltibia 36.9512
lfoot -19.2427 -11.9084
ltoes -21.1962
390
root 9.09439 17.7381 2.9004 -365.641 49.2285 -361.543
lowerback 12.5878 0.400207 -1.44044
upperback 1.26008 0.360024 0.00255055
thorax -5.74462 0.223177 0.752629
lowerneck -11.9141 -9.15499 -14.5308
upperneck 33.2661 -13.7965 13.0804
head 15.8378 -5.97779 5.69505
rclavicle 2.57923e-014 -1.78906e-014
rhumerus -40.964 -16.91 -70.9382
rradius 35.4392
rwrist 3.18269
rhand -18.7265 6.67236
rfingers 7.12502
rthumb 7.56914 -23.1722
lclavicle 2.57923e-014 -1.78906e-014
lhumerus -30.9119 4.82453 83.7763
lradius 32.6575
lwrist -8.14888
lhand -16.8933 25.2227
lfingers 7.12502
lthumb 9.33829 54.9959
rfemur -9.71912 -0.0211961 20.3524
rtibia 33.936
rfoot -17.8171 3.9137
rtoes 3.60315
lfemur -13.7081 -2.87621 -18.1396
ltibia 36.53
lfoot -19.4741 -13.1686
ltoes -20.4663
391
root 9.09237 17.7156 2.95216 -365.583 48.9221 -361.523
lowerback 12.6928 0.361139 -1.19506
upperback 1.11906 0.330823 -0.112892
thorax -5.94938 0.202545 0.496917
lowerneck -11.7342 -9.0753 -14.2205
upperneck 33.3493 -13.7688 13.026
head 15.7918 -5.93888 5.63319
rclavicle 3.46755e-014 -7.55382e-015
rhumerus -41.2953 -17.216 -70.7458
rradius 35.5732
rwrist 3.03812
rhand -18.4204 6.70139
rfingers 7.12502
rthumb 7.86461 -23.1323
lclavicle 3.46755e-014 -7.55382e-015
lhumerus -31.2233 4.19375 83.8715
lradius 32.7427
lwrist -7.76249
lhand -16.6451 24.9437
lfingers 7.12502
lthumb 9.57779 54.706
rfemur -9.93783 -0.126245 20.5134
rtibia 34.4242
rfoot -18.0708 4.20281
rtoes 3.64913
lfemur -14.0024 -3.86539 -18.7677
ltibia 36.0695
lfoot -19.3764 -14.66
ltoes -19.6266
392
root 9.09252 17.7011 3.00435 -365.659 48.6382 -361.661
lowerback 12.7929 0.320028 -0.663514
upperback 1.0094 0.335024 -0.324603
thorax -6.117 0.188561 -0.0277256
lowerneck -11.639 -9.08431 -14.0333
upperneck 33.4359 -13.9197 13.2022
head 15.8441 -5.96104 5.65953
rclavicle 1.85665e-013 -9.14409e-015
rhumerus -41.6098 -17.7715 -70.6752
rradius 35.6192
rwrist 3.02755
rhand -18.6522 6.5573
rfingers 7.12502
rthumb 7.64087 -23.2847
lclavicle 1.85665e-013 -9.14409e-015
lhumerus -31.4514 3.56818 83.7551
lradius 32.7225
lwrist -7.71222
lhand -16.8875 24.5648
lfingers 7.12502
lthumb 9.34389 54.3377
rfemur -10.0794 0.0963849 20.8059
rtibia 34.8455
rfoot -18.2522 4.27909
rtoes 4.44687
lfemur -14.2838 -4.39597 -19.2131
ltibia 35.5233
lfoot -19.1133 -16.3756
ltoes -18.1935
393
root 9.09347 17.6924 3.05641 -365.688 48.4203 -361.732
lowerback 12.9459 0.218071 -0.119579
upperback 0.935281 0.261008 -0.554832
thorax -6.27711 0.134414 -0.56554
lowerneck -11.8762 -9.07692 -13.9465
upperneck 33.6819 -14.008 13.3916
head 16.0574 -5.95328 5.72368
rclavicle 1.63997e-015 9.14409e-015
rhumerus -41.7934 -18.2169 -70.7043
rradius 35.7201
rwrist 3.01366
rhand -18.7348 6.415
rfingers 7.12502
rthumb 7.56116 -23.4298
lclavicle 1.63997e-015 9.14409e-015
lhumerus -31.4818 3.33289 83.5482
lradius 32.5035
lwrist -7.80605
lhand -17.4594 23.3915
lfingers 7.12502
lthumb 8.79204 53.1884
rfemur -10.1625 0.550868 21.0623
rtibia 35.2007
rfoot -18.4214 4.08103
rtoes 4.88504
lfemur -14.5462 -4.65279 -19.6437
ltibia 34.9056
lfoot -18.6507 -18.1135
ltoes -17.181
394
root 9.09321 17.6827 3.10654 -365.489 48.2474 -361.532
lowerback 12.9607 0.133348 -0.0993145
upperback 0.953075 0.148176 -0.610023
thorax -6.26731 0.0780412 -0.614738
lowerneck -12.1196 -9.06796 -13.8826
upperneck 33.8191 -14.0127 13.4059
head 16.1828 -5.93504 5.72042
rclavicle 3.57067e-014 -6.36111e-015
rhumerus -41.7089 -18.4205 -70.5852
rradius 35.7688
rwrist 3.00321
rhand -18.6913 6.48368
rfingers 7.12502
rthumb 7.60308 -23.3597
lclavicle 3.57067e-014 -6.36111e-015
lhumerus -31.3338 3.44089 83.5798
lradius 32.2254
lwrist -8.00613
lhand -17.5883 22.2825
lfingers 7.12502
lthumb 8.66767 52.0846
rfemur -10.2563 0.64506 21.0688
rtibia 35.51
rfoot -18.643 4.13956
rtoes 4.84719
lfemur -14.7998 -4.96016 -20.2322
ltibia 34.2568
lfoot -17.7378 -19.9382
ltoes -14.9872
395
root 9.09097 17.6759 3.15699 -365.331 47.9454 -361.356
lowerback 12.8483 0.102255 -0.443243
upperback 1.03546 0.0717578 -0.412415
thorax -6.11861 0.0527116 -0.197741
lowerneck -12.2289 -9.0575 -13.9907
upperneck 33.8424 -13.9299 13.3135
head 16.2041 -5.92251 5.71141
rclavicle 2.98425e-014 -7.95139e-016
rhumerus -41.4024 -18.3235 -70.3167
rradius 35.6977
rwrist 2.96831
rhand -18.9324 6.74125
rfingers 7.12502
rthumb 7.37043 -23.1104
lclavicle 2.98425e-014 -7.95139e-016
lhumerus -31.3349 3.74254 83.8229
lradius 32.0783
lwrist -8.37512
lhand -17.7134 22.3875
lfingers 7.12502
lthumb 8.54693 52.1945
rfemur -10.3719 0.662952 21.0974
rtibia 35.8468
rfoot -18.8257 4.3091
rtoes 4.54314
lfemur -15.0177 -5.12434 -20.724
ltibia 33.6339
lfoot -16.2052 -21.7698
ltoes -11.3818
396
root 9.0873 17.6658 3.20882 -365.38 47.4623 -361.469
lowerback 12.7417 0.159104 -0.607903
upperback 1.13067 0.141724 -0.158645
thorax -5.95939 0.0942304 0.150372
lowerneck -12.4061 -9.07336 -14.3004
upperneck 33.8056 -13.9107 13.4745
head 16.2765 -5.9312 5.83703
rclavicle -1.18774e-014 6.16232e-015
rhumerus -41.1645 -18.3717 -69.9972
rradius 35.832
rwrist 2.83036
rhand -18.6969 6.69342
rfingers 7.12502
rthumb 7.59776 -23.1501
lclavicle -1.18774e-014 6.16232e-015
lhumerus -31.5608 3.51551 84.1343
lradius 32.2332
lwrist -8.29845
lhand -17.8283 23.0249
lfingers 7.12502
lthumb 8.43606 52.8364
rfemur -10.5404 0.777287 21.3584
rtibia 36.2337
rfoot -18.9524 4.59421
rtoes 4.94038
lfemur -15.2508 -5.2304 -20.9042
ltibia 33.1267
lfoot -13.9549 -23.3348
ltoes -7.99052
397
root 9.08427 17.6527 3.2588 -365.354 47.0593 -361.459
lowerback 12.7453 0.237434 -0.721826
upperback 1.17032 0.237773 -0.0339218
thorax -5.92115 0.145585 0.329024
lowerneck -12.4838 -9.1004 -14.3799
upperneck 33.7208 -13.9702 13.6186
head 16.2904 -5.94821 5.89752
rclavicle -6.63195e-014 8.74653e-015
rhumerus -41.1994 -18.5691 -69.6999
rradius 36.155
rwrist 2.68152
rhand -18.3213 6.30774
rfingers 7.12502
rthumb 7.96022 -23.5224
lclavicle -6.63195e-014 8.74653e-015
lhumerus -31.6956 3.24374 84.3857
lradius 32.2469
lwrist -8.22549
lhand -17.8061 23.3871
lfingers 7.12502
lthumb 8.45748 53.1978
rfemur -10.7369 0.551165 21.4611
rtibia 36.6889
rfoot -19.0955 5.17924
rtoes 5.54634
lfemur -15.4746 -5.41971 -21.1465
ltibia 32.7643
lfoot -11.8414 -24.2159
ltoes -4.34523
398
root 9.08417 17.6429 3.3065 -365.343 46.655 -361.4
lowerback 12.815 0.278883 -0.813748
upperback 1.18321 0.282991 0.0252467
thorax -5.94759 0.170839 0.434983
lowerneck -12.4752 -9.09017 -14.1015
upperneck 33.6264 -13.9724 13.4683
head 16.1923 -5.93252 5.77043
rclavicle 5.65791e-014 -3.97569e-016
rhumerus -41.2773 -18.8049 -69.4386
rradius 36.329
rwrist 2.72983
rhand -18.1967 6.22733
rfingers 7.12502
rthumb 8.08054 -23.5982
lclavicle 5.65791e-014 -3.97569e-016
lhumerus -31.7061 3.19253 84.5459
lradius 32.0276
lwrist -8.36931
lhand -17.9863 23.332
lfingers 7.12502
lthumb 8.28357 53.1496
rfemur -10.8646 0.079787 21.5117
rtibia 37.2069
rfoot -19.0719 5.85414
rtoes 6.09493
lfemur -15.5941 -5.47163 -21.3778
ltibia 32.5624
lfoot -10.2107 -24.4981
ltoes 0.572092
399
root 9.08179 17.6364 3.35386 -365.146 46.1537 -361.235
lowerback 12.7007 0.352258 -0.998938
upperback 1.21101 0.356919 0.0523428
thorax -5.8569 0.211431 0.555603
lowerneck -12.5033 -9.07882 -13.8426
upperneck 33.5149 -13.9822 13.3732
head 16.1053 -5.91556 5.66936
rclavicle -7.10655e-015 -4.57205e-015
rhumerus -41.2443 -19.1095 -69.2543
rradius 36.3888
rwrist 2.83756
rhand -18.1626 6.21827
rfingers 7.12502
rthumb 8.11336 -23.606
lclavicle -7.10655e-015 -4.57205e-015
lhumerus -31.6926 2.98196 84.7154
lradius 31.8936
lwrist -8.31164
lhand -17.9724 23.5834
lfingers 7.12502
lthumb 8.29694 53.4004
rfemur -11.1156 -0.264117 21.5412
rtibia 37.768
rfoot -18.8737 6.36891
rtoes 6.48791
lfemur -15.7577 -5.39356 -21.5593
ltibia 32.5143
lfoot -8.49134 -24.1248
ltoes 6.52795
